<?xml version="1.0" encoding="utf-8"?>
<!-- Generator: Adobe Illustrator 22.0.0, SVG Export Plug-In . SVG Version: 6.00 Build 0)  -->
<svg version="1.1" id="Capa_1" xmlns="http://www.w3.org/2000/svg" xmlns:xlink="http://www.w3.org/1999/xlink" x="0px" y="0px"
	 viewBox="0 0 358 358" style="enable-background:new 0 0 358 358;" xml:space="preserve">
<style type="text/css">
	.st0{fill:#8710D8;}
	.st1{fill:#DA00D8;}
	.st2{fill:#FFFFFF;}
</style>
<g>
	<path class="st0" d="M321.5,358h-285C16.3,358,0,341.7,0,321.5v-285C0,16.3,16.3,0,36.5,0h285C341.7,0,358,16.3,358,36.5v285
		C358,341.7,341.7,358,321.5,358z"/>
</g>
<path class="st1" d="M140.2,296.4l-13.6,10.8c-0.5,0.4-1.1,0.7-1.7,0.8c-6.9,1.2-12.2-5.4-15-14.7l-19.6-63.7
	c-3-9.7,1.4-16.2,7.6-27.3l2.7-4.5c0.3-0.4,4.9-8.6,7-10.4c8.3-7,16.4,21.9,19.3,31.3l17.4,55.1
	C147.2,283.4,147.9,290.9,140.2,296.4z"/>
<path class="st2" d="M65,311l-25.7-1c-1,0-1.9-0.3-2.8-0.7C26.8,305,25.3,294.7,29,284l25-74c3.9-11.2,14.4-13.8,31-19l7-2
	c0.7-0.2,13-4,17-4c16,0.1,3.6,33.1,0,44l-21.1,64.3C84,304.6,79,312,65,311z"/>
<path class="st1" d="M247.7,295.1l-15.1,9.4c-9.1,4.4-19,6.7-21.9-8.1l-22.2-118.6c-2.9-14.8-1-20.2,6.2-29.6l15.8-16.5
	c13.7-8.2,19.4,3.6,21.3,15.6l23,115.1C257.7,277.3,257.9,288.5,247.7,295.1z"/>
<path class="st2" d="M243.6,308.7L231,309c-25,0-22.4-9.3-18-22l60.5-179c4.4-12.7,38.8-44.4,51.5-40l0,0
	c12.7,4.4,11.7,46.5,7.3,59.3l-57.8,166.3C270.2,306.3,261,309,243.6,308.7z"/>
<path class="st2" d="M155.2,310.6L134,311c-12-1-23.6-4.6-18-21l46.2-130.4C167.9,143.2,173,139,186,134l26-7c19,0,18,15,13,28
	l-43.3,127.4C176,298.8,169.7,310,155.2,310.6z"/>
</svg>
